<svg width="141" height="56" viewBox="0 0 141 56" fill="none" xmlns="http://www.w3.org/2000/svg">
<path d="M32.5088 0.26709C38.8607 -0.613457 44.5709 0.700438 48.6094 3.95166C58.6388 12.0392 58.2248 25.7759 47.5 40.7183C41.8301 48.616 32.8036 54.211 23.3359 55.6606C21.8248 55.8909 20.3663 55.9985 18.9756 55.9985C14.8036 55.9985 11.2199 54.9696 8.6123 53.0054C-2.39326 44.674 -2.88805 30.0839 7.3418 15.8325C13.2792 7.55541 22.9074 1.59478 32.5088 0.26709Z" fill="white"/>
<path d="M35.5366 42.4252L36.811 50.6263C32.6701 53.1832 28.0576 54.9375 23.3354 55.6605C21.8244 55.8908 20.3658 55.9984 18.9751 55.9984C15.2348 55.9983 11.9677 55.1709 9.45264 53.5844L14.6753 42.4252H35.5366ZM1.77979 44.5336C-1.80736 36.4054 0.0197533 26.0322 7.34131 15.8324C11.221 10.4239 16.6771 6.00516 22.6714 3.22107L1.77979 44.5336ZM39.0103 0.151733C42.719 0.570877 46.0101 1.85946 48.6089 3.95154C58.433 11.8735 58.2357 25.2149 48.144 39.8011L39.0103 0.151733ZM35.0444 32.9965H18.9038L30.2036 9.77673L35.0444 32.9965Z" fill="#CE0E2D"/>
<path d="M66.5825 20.1152H68.8888V14.9804H71.7448V12.568H68.8888V10.4117H71.9862V7.99927H66.5825V20.1152Z" fill="#001689"/>
<path d="M81.4941 12.4332V11.0585H79.5632V20.1286H81.6282V14.5221C81.6282 14.1582 81.7086 13.9156 81.8561 13.7944C81.9634 13.7 82.1779 13.6461 82.4729 13.6461C82.7142 13.6461 82.9154 13.6731 83.0897 13.727V10.8159C82.2986 10.8024 81.7622 11.355 81.4941 12.4332Z" fill="#001689"/>
<path d="M90.4508 10.8025C89.8206 10.8025 89.311 11.2068 88.9356 12.002H88.9222C88.8015 11.6246 88.6004 11.3281 88.3054 11.1125C88.0238 10.8968 87.702 10.8025 87.3668 10.816C86.6696 10.8699 86.1466 11.3146 85.8114 12.1232H85.7846V11.0586H83.8538V20.1286H85.9321V13.6462C85.9321 13.1475 86.1466 12.9049 86.5623 12.9049C86.8036 12.9049 86.9645 13.1475 87.045 13.6462V20.1286H89.1233V13.6462C89.1233 13.161 89.311 12.9184 89.6999 12.9049C90.0753 12.878 90.2496 13.1206 90.2496 13.6462V20.1286H92.328V12.7028C92.328 12.1098 92.1537 11.6515 91.7782 11.3146C91.4028 10.9777 90.9603 10.8025 90.4508 10.8025Z" fill="#001689"/>
<path d="M103.296 17.7567C103.216 18.2958 103.028 18.5518 102.693 18.5518C102.25 18.5518 102.022 18.2149 102.022 17.5006V13.7675C102.022 13.0262 102.223 12.6623 102.666 12.6623C102.947 12.6623 103.135 12.851 103.229 13.2284C103.283 13.6866 103.309 14.037 103.309 14.2661L103.323 14.4278H105.267C105.321 13.1745 105.133 12.258 104.704 11.692C104.261 11.1125 103.537 10.816 102.518 10.8025C100.802 10.8025 99.9438 11.8268 99.9438 13.9157V17.5949C99.9438 19.4683 100.802 20.4117 102.518 20.4117C102.706 20.4117 102.934 20.3982 103.216 20.3712C104.261 20.2499 104.905 19.6569 105.173 18.6057C105.294 18.1475 105.347 17.4197 105.347 16.4494H103.336C103.336 17.1772 103.323 17.6084 103.296 17.7567Z" fill="#001689"/>
<path d="M108.698 11.045H106.62V20.1151H108.698V11.045Z" fill="#001689"/>
<path d="M108.698 7.99927H106.62V10.1826H108.698V7.99927Z" fill="#001689"/>
<path d="M120.176 14.8995C119.747 14.6704 119.305 14.4278 118.876 14.1852C118.447 13.9292 118.232 13.6327 118.232 13.2688C118.232 12.7567 118.46 12.5006 118.916 12.5006C119.211 12.5006 119.399 12.6354 119.493 12.8914C119.519 12.9993 119.56 13.2957 119.6 13.754H121.544C121.571 12.7971 121.33 12.0559 120.793 11.5168C120.324 11.0451 119.68 10.8025 118.876 10.8025C118.085 10.8025 117.455 11.0316 116.972 11.4629C116.435 11.9615 116.167 12.6758 116.167 13.5922C116.167 14.2257 116.342 14.8052 116.704 15.2904C116.972 15.6677 117.374 16.0181 117.951 16.355C118.42 16.6246 118.889 16.8941 119.359 17.1367C119.546 17.3119 119.64 17.541 119.64 17.8375C119.64 18.4036 119.399 18.7001 118.903 18.7001C118.38 18.7001 118.138 18.2418 118.165 17.3254H116.167C116.1 19.3739 116.999 20.3982 118.876 20.3982C119.694 20.3982 120.351 20.1691 120.833 19.7243C121.37 19.2122 121.638 18.471 121.638 17.5141C121.638 16.8537 121.491 16.3011 121.209 15.8699C121.008 15.5329 120.659 15.2095 120.176 14.8995Z" fill="#001689"/>
<path d="M128.946 11.8807H128.919C128.53 11.1664 128.021 10.8025 127.404 10.8025C126.774 10.8025 126.318 11.1529 125.996 11.8268C125.755 12.3793 125.621 13.0667 125.621 13.9157V17.0424C125.621 19.2526 126.237 20.3712 127.458 20.4117C128.141 20.4251 128.691 19.9804 129.08 19.064V20.1152H131.011V7.99927H128.933V11.8807H128.946ZM128.946 16.7324C128.946 17.7702 128.731 18.2958 128.302 18.2958C127.913 18.2958 127.712 17.8106 127.712 16.8402V14.5087C127.712 14.037 127.726 13.7001 127.779 13.4979C127.873 13.1206 128.074 12.9049 128.369 12.9049C128.772 12.8915 128.973 13.471 128.973 14.603V16.7324H128.946Z" fill="#001689"/>
<path d="M134.887 10.8025C133.023 10.8294 132.085 11.8672 132.085 13.9157V17.5949C132.085 18.5788 132.366 19.3065 132.929 19.8052C133.426 20.223 134.083 20.4251 134.887 20.4251C136.805 20.3982 137.703 19.2526 137.596 17.0019H135.544C135.49 17.6219 135.464 17.9723 135.437 18.0801C135.343 18.417 135.128 18.5922 134.793 18.5653C134.364 18.5383 134.163 18.2149 134.163 17.6084V16.0181H137.689V13.417C137.689 12.5006 137.408 11.8133 136.831 11.3685C136.349 10.9912 135.705 10.8025 134.887 10.8025ZM135.611 14.3065H134.163V13.7135C134.163 12.9049 134.404 12.5006 134.901 12.5006C135.128 12.5006 135.316 12.6084 135.45 12.8375C135.558 12.9993 135.611 13.2014 135.611 13.417V14.3065Z" fill="#001689"/>
<path d="M141 7.99927H138.922V20.1152H141V7.99927Z" fill="#001689"/>
<path d="M96.0137 10.8025C94.0561 10.8025 93.1174 11.8402 93.2113 13.9292H95.2896C95.3165 13.417 95.3567 13.0936 95.4237 12.9319C95.531 12.6489 95.7589 12.5141 96.0807 12.5141C96.2819 12.5141 96.4428 12.6084 96.5634 12.7971C96.6841 12.9723 96.7378 13.2014 96.7378 13.4575C96.7378 13.9561 96.4294 14.347 95.7857 14.5896C94.8337 14.9804 94.2438 15.2634 94.0561 15.4251C93.4393 15.9642 93.1309 16.8133 93.1309 17.9858C93.1309 18.7135 93.2918 19.2931 93.6404 19.7513C93.9756 20.196 94.4583 20.4251 95.0349 20.4251C95.6919 20.4251 96.2819 20.0478 96.8182 19.32L96.8048 20.1286H98.7893V13.5114C98.7759 12.541 98.5747 11.8537 98.1725 11.4494C97.7434 11.0181 97.0193 10.8025 96.0137 10.8025ZM96.7244 17.1502C96.7244 18.0666 96.4696 18.5249 95.9601 18.5249C95.4505 18.5249 95.1824 18.2014 95.1824 17.5545C95.1824 17.0693 95.3433 16.6785 95.6651 16.382C96.0942 16.0855 96.4562 15.8699 96.7244 15.7216V17.1502Z" fill="#001689"/>
<path d="M75.6604 10.8025C73.7028 10.8025 72.7776 11.8402 72.8714 13.9292H74.9498C74.9632 13.417 75.0034 13.0936 75.0704 12.9319C75.1777 12.6489 75.3922 12.5141 75.7275 12.5141C75.9286 12.5141 76.0761 12.6084 76.2102 12.7971C76.3308 12.9723 76.3845 13.2014 76.3845 13.4575C76.3845 13.9561 76.0761 14.347 75.4325 14.5896C74.4805 14.9804 73.9039 15.2634 73.7028 15.4251C73.086 15.9642 72.7642 16.8133 72.7642 17.9858C72.7642 18.7135 72.9251 19.2931 73.2737 19.7513C73.6223 20.196 74.0782 20.4251 74.6682 20.4251C75.3118 20.4251 75.9018 20.0478 76.4515 19.32L76.4381 20.1286H78.436V13.5114C78.4226 12.541 78.208 11.8537 77.8058 11.4494C77.4035 11.0181 76.6795 10.8025 75.6604 10.8025ZM76.3845 17.1502C76.3845 18.0666 76.1297 18.5249 75.6202 18.5249C75.0973 18.5249 74.8425 18.2014 74.8425 17.5545C74.8425 17.0693 75.0034 16.6785 75.3252 16.382C75.7543 16.0855 76.1029 15.8699 76.3711 15.7216V17.1502H76.3845Z" fill="#001689"/>
<path d="M112.588 10.8025C110.644 10.8025 109.705 11.8402 109.785 13.9292H111.864C111.877 13.417 111.931 13.0936 111.984 12.9319C112.092 12.6489 112.32 12.5141 112.642 12.5141C112.843 12.5141 113.004 12.6084 113.124 12.7971C113.245 12.9723 113.299 13.2014 113.299 13.4575C113.299 13.9561 112.977 14.347 112.347 14.5896C111.395 14.9804 110.818 15.2634 110.603 15.4251C109.987 15.9642 109.678 16.8133 109.678 17.9858C109.678 18.7135 109.853 19.2931 110.188 19.7513C110.536 20.196 111.006 20.4251 111.582 20.4251C112.226 20.4251 112.829 20.0478 113.379 19.32V20.1286H115.363V13.5114C115.35 12.541 115.149 11.8537 114.733 11.4494C114.331 11.0181 113.594 10.8025 112.588 10.8025ZM113.312 17.1502C113.312 18.0666 113.044 18.5249 112.548 18.5249C112.025 18.5249 111.77 18.2014 111.77 17.5545C111.77 17.0693 111.931 16.6785 112.266 16.382C112.695 16.0855 113.044 15.8699 113.325 15.7216V17.1502H113.312Z" fill="#001689"/>
<path d="M72.7781 26.0448H69.5065H67.294L55.9236 47.8372H61.4077L63.8078 43.2416H69.5065V47.8372H74.9906L74.4676 26.0448H72.7781ZM69.5199 39.1715H65.9398L69.5199 32.2982V39.1715Z" fill="#001689"/>
<path d="M87.3794 32.4737C85.9581 32.4737 85.1401 32.6893 83.6116 33.1206L84.4831 26.0182H79.3342L76.5989 47.8511H81.7478L82.9679 37.8106C83.1154 36.6651 83.4909 36.0991 84.3624 36.0991C85.2206 36.0991 85.3413 36.5573 85.2206 37.5007L83.9468 47.8646L89.1493 47.9993L90.7851 36.3282C90.9192 35.2635 90.6913 34.374 90.1013 33.6867C89.5113 32.9724 88.4923 32.4737 87.3794 32.4737Z" fill="#001689"/>
<path d="M116.33 32.4737C114.895 32.4737 114.077 32.6894 112.562 33.1206L112.642 32.4468H107.48L105.549 47.8376H110.698L111.61 40.2635C111.757 39.1045 112.428 37.3524 115.86 37.6085L116.558 32.5007C116.477 32.4872 116.397 32.4737 116.33 32.4737Z" fill="#001689"/>
<path d="M100.105 32.2445H99.3545C96.0292 32.2445 92.7977 34.9804 92.1943 38.3362L91.5507 41.8941C90.9339 45.2499 93.1732 47.9857 96.5119 47.9857H97.2628C100.588 47.9857 103.82 45.2499 104.423 41.8941L105.067 38.3362C105.657 34.9804 103.431 32.2445 100.105 32.2445ZM99.8372 40.1151C99.5154 41.7593 99.1534 42.8779 98.7645 43.4709C98.3757 44.0774 97.9198 44.3469 97.4237 44.2795C96.9275 44.2256 96.6192 43.8618 96.4717 43.1609C96.3242 42.4736 96.3912 41.4089 96.6862 39.9264C96.9812 38.4305 97.3432 37.3793 97.7455 36.7728C98.1477 36.1663 98.5902 35.8833 99.0595 35.9507C99.5422 36.0046 99.864 36.382 100.012 37.0558C100.186 37.7162 100.119 38.7405 99.8372 40.1151Z" fill="#001689"/>
<path d="M127.002 32.4737C125.568 32.4737 124.75 32.6894 123.235 33.1206L123.315 32.4468H118.153L116.235 47.8376H121.384L122.283 40.2635C122.43 39.1045 123.101 37.3524 126.533 37.6085L127.23 32.5007C127.15 32.4872 127.083 32.4737 127.002 32.4737Z" fill="#001689"/>
<path d="M135.624 32.2445H134.887C131.548 32.2445 128.33 34.9804 127.727 38.3362L127.083 41.8941C126.48 45.2499 128.706 47.9857 132.031 47.9857H132.782C136.107 47.9857 139.339 45.2499 139.942 41.8941L140.586 38.3362C141.189 34.9804 138.963 32.2445 135.624 32.2445ZM135.37 40.1151C135.048 41.7593 134.672 42.8779 134.283 43.4709C133.881 44.0774 133.439 44.3469 132.943 44.2795C132.46 44.2256 132.152 43.8618 131.991 43.1609C131.843 42.4736 131.91 41.4089 132.205 39.9264C132.514 38.4305 132.849 37.3793 133.264 36.7728C133.667 36.1663 134.109 35.8833 134.578 35.9507C135.061 36.0046 135.383 36.382 135.544 37.0558C135.705 37.7162 135.651 38.7405 135.37 40.1151Z" fill="#001689"/>
</svg>
